<mxfile host="app.diagrams.net" modified="2024-01-25T17:01:33.486Z" agent="Mozilla/5.0 (Windows NT 10.0; Win64; x64) AppleWebKit/537.36 (KHTML, like Gecko) Chrome/120.0.0.0 Safari/537.36" etag="CnoWvk8lbohV8KahAgTq" version="23.0.1" type="device">
  <diagram id="R2lEEEUBdFMjLlhIrx00" name="Page-1">
    <mxGraphModel dx="2206" dy="1200" grid="1" gridSize="10" guides="1" tooltips="1" connect="1" arrows="1" fold="1" page="1" pageScale="1" pageWidth="850" pageHeight="1100" math="0" shadow="0" extFonts="Permanent Marker^https://fonts.googleapis.com/css?family=Permanent+Marker">
      <root>
        <mxCell id="0" />
        <mxCell id="1" parent="0" />
        <mxCell id="z0pL7Ufs_5OJyJkCOpSr-1" value="" style="rounded=0;whiteSpace=wrap;html=1;fillColor=#ffe6cc;strokeColor=#d79b00;" vertex="1" parent="1">
          <mxGeometry x="40" y="30" width="550" height="760" as="geometry" />
        </mxCell>
        <mxCell id="z0pL7Ufs_5OJyJkCOpSr-2" value="ACCIDENTEGEOGRÁFICO(&lt;u style=&quot;color: rgb(255, 25, 25);&quot;&gt;idAccidenteGeografico,&lt;/u&gt;nombre, posVertical, posHorizontal, tipo)" style="text;html=1;strokeColor=none;fillColor=none;align=center;verticalAlign=middle;whiteSpace=wrap;rounded=0;" vertex="1" parent="1">
          <mxGeometry x="40" y="50" width="540" height="30" as="geometry" />
        </mxCell>
        <mxCell id="z0pL7Ufs_5OJyJkCOpSr-3" value="RIO(&lt;u style=&quot;color: rgb(255, 25, 25);&quot;&gt;&lt;i&gt;idAccidenteGeografico&lt;/i&gt;,&lt;/u&gt;longitud)" style="text;html=1;strokeColor=none;fillColor=none;align=center;verticalAlign=middle;whiteSpace=wrap;rounded=0;" vertex="1" parent="1">
          <mxGeometry x="45" y="150" width="540" height="30" as="geometry" />
        </mxCell>
        <mxCell id="z0pL7Ufs_5OJyJkCOpSr-4" value="MONTAÑA(&lt;u style=&quot;color: rgb(255, 25, 25);&quot;&gt;&lt;i&gt;idAccidenteGeografico&lt;/i&gt;,&lt;/u&gt;altitud)" style="text;html=1;strokeColor=none;fillColor=none;align=center;verticalAlign=middle;whiteSpace=wrap;rounded=0;" vertex="1" parent="1">
          <mxGeometry x="45" y="230" width="540" height="30" as="geometry" />
        </mxCell>
        <mxCell id="z0pL7Ufs_5OJyJkCOpSr-5" value="LAGO(&lt;u style=&quot;color: rgb(255, 25, 25);&quot;&gt;&lt;i&gt;idAccidenteGeografico&lt;/i&gt;,&lt;/u&gt;extension)" style="text;html=1;strokeColor=none;fillColor=none;align=center;verticalAlign=middle;whiteSpace=wrap;rounded=0;" vertex="1" parent="1">
          <mxGeometry x="50" y="310" width="540" height="30" as="geometry" />
        </mxCell>
        <mxCell id="z0pL7Ufs_5OJyJkCOpSr-6" value="" style="endArrow=classic;html=1;rounded=0;exitX=0.47;exitY=0.033;exitDx=0;exitDy=0;exitPerimeter=0;entryX=0.25;entryY=1;entryDx=0;entryDy=0;" edge="1" parent="1" source="z0pL7Ufs_5OJyJkCOpSr-3" target="z0pL7Ufs_5OJyJkCOpSr-2">
          <mxGeometry width="50" height="50" relative="1" as="geometry">
            <mxPoint x="370" y="430" as="sourcePoint" />
            <mxPoint x="420" y="380" as="targetPoint" />
            <Array as="points">
              <mxPoint x="300" y="110" />
              <mxPoint x="175" y="110" />
            </Array>
          </mxGeometry>
        </mxCell>
        <mxCell id="z0pL7Ufs_5OJyJkCOpSr-7" value="" style="endArrow=classic;html=1;rounded=0;exitX=0.5;exitY=0;exitDx=0;exitDy=0;entryX=0.185;entryY=1.033;entryDx=0;entryDy=0;entryPerimeter=0;" edge="1" parent="1" source="z0pL7Ufs_5OJyJkCOpSr-4" target="z0pL7Ufs_5OJyJkCOpSr-2">
          <mxGeometry width="50" height="50" relative="1" as="geometry">
            <mxPoint x="370" y="430" as="sourcePoint" />
            <mxPoint x="420" y="380" as="targetPoint" />
            <Array as="points">
              <mxPoint x="315" y="200" />
              <mxPoint x="140" y="200" />
            </Array>
          </mxGeometry>
        </mxCell>
        <mxCell id="z0pL7Ufs_5OJyJkCOpSr-8" value="" style="endArrow=classic;html=1;rounded=0;exitX=0.483;exitY=0;exitDx=0;exitDy=0;exitPerimeter=0;entryX=0.139;entryY=1.133;entryDx=0;entryDy=0;entryPerimeter=0;" edge="1" parent="1" source="z0pL7Ufs_5OJyJkCOpSr-5" target="z0pL7Ufs_5OJyJkCOpSr-2">
          <mxGeometry width="50" height="50" relative="1" as="geometry">
            <mxPoint x="370" y="430" as="sourcePoint" />
            <mxPoint x="420" y="380" as="targetPoint" />
            <Array as="points">
              <mxPoint x="311" y="280" />
              <mxPoint x="115" y="280" />
            </Array>
          </mxGeometry>
        </mxCell>
        <mxCell id="z0pL7Ufs_5OJyJkCOpSr-9" value="TIENE(&lt;u style=&quot;color: rgb(255, 25, 25);&quot;&gt;&lt;i&gt;idAccidenteGeografico&lt;/i&gt;,&amp;nbsp;&lt;i&gt;nombrePais&lt;/i&gt;&lt;/u&gt;)" style="text;html=1;strokeColor=none;fillColor=none;align=center;verticalAlign=middle;whiteSpace=wrap;rounded=0;" vertex="1" parent="1">
          <mxGeometry x="45" y="390" width="540" height="30" as="geometry" />
        </mxCell>
        <mxCell id="z0pL7Ufs_5OJyJkCOpSr-10" value="" style="endArrow=classic;html=1;rounded=0;exitX=0.5;exitY=0;exitDx=0;exitDy=0;entryX=0.1;entryY=1.067;entryDx=0;entryDy=0;entryPerimeter=0;" edge="1" parent="1" source="z0pL7Ufs_5OJyJkCOpSr-9" target="z0pL7Ufs_5OJyJkCOpSr-2">
          <mxGeometry width="50" height="50" relative="1" as="geometry">
            <mxPoint x="370" y="430" as="sourcePoint" />
            <mxPoint x="420" y="380" as="targetPoint" />
            <Array as="points">
              <mxPoint x="315" y="360" />
              <mxPoint x="94" y="360" />
            </Array>
          </mxGeometry>
        </mxCell>
        <mxCell id="z0pL7Ufs_5OJyJkCOpSr-11" value="PAIS(&lt;font style=&quot;text-decoration-line: underline;&quot; color=&quot;#ff1919&quot;&gt;nombrePais,&lt;/font&gt; extension, poblacion)" style="text;html=1;strokeColor=none;fillColor=none;align=center;verticalAlign=middle;whiteSpace=wrap;rounded=0;" vertex="1" parent="1">
          <mxGeometry x="45" y="470" width="540" height="30" as="geometry" />
        </mxCell>
        <mxCell id="z0pL7Ufs_5OJyJkCOpSr-12" value="" style="endArrow=classic;html=1;rounded=0;exitX=0.639;exitY=-0.033;exitDx=0;exitDy=0;exitPerimeter=0;entryX=0.269;entryY=0.333;entryDx=0;entryDy=0;entryPerimeter=0;" edge="1" parent="1" source="z0pL7Ufs_5OJyJkCOpSr-9" target="z0pL7Ufs_5OJyJkCOpSr-11">
          <mxGeometry width="50" height="50" relative="1" as="geometry">
            <mxPoint x="370" y="430" as="sourcePoint" />
            <mxPoint x="420" y="380" as="targetPoint" />
            <Array as="points">
              <mxPoint x="390" y="360" />
              <mxPoint x="520" y="360" />
              <mxPoint x="520" y="450" />
              <mxPoint x="160" y="450" />
              <mxPoint x="160" y="480" />
            </Array>
          </mxGeometry>
        </mxCell>
        <mxCell id="z0pL7Ufs_5OJyJkCOpSr-13" value="CONTIENE(&lt;u style=&quot;color: rgb(255, 25, 25);&quot;&gt;&lt;i&gt;nombrePais, idLocalidad&lt;/i&gt;&lt;/u&gt;)" style="text;html=1;strokeColor=none;fillColor=none;align=center;verticalAlign=middle;whiteSpace=wrap;rounded=0;" vertex="1" parent="1">
          <mxGeometry x="45" y="550" width="540" height="30" as="geometry" />
        </mxCell>
        <mxCell id="z0pL7Ufs_5OJyJkCOpSr-14" value="" style="endArrow=classic;html=1;rounded=0;exitX=0.5;exitY=0;exitDx=0;exitDy=0;" edge="1" parent="1" source="z0pL7Ufs_5OJyJkCOpSr-13">
          <mxGeometry width="50" height="50" relative="1" as="geometry">
            <mxPoint x="370" y="430" as="sourcePoint" />
            <mxPoint x="190" y="490" as="targetPoint" />
            <Array as="points">
              <mxPoint x="315" y="530" />
              <mxPoint x="170" y="530" />
              <mxPoint x="170" y="490" />
            </Array>
          </mxGeometry>
        </mxCell>
        <mxCell id="z0pL7Ufs_5OJyJkCOpSr-15" value="LOCALIDAD(&lt;font style=&quot;text-decoration-line: underline;&quot; color=&quot;#ff1919&quot;&gt;idLocalidad,&lt;/font&gt;&amp;nbsp;nombreLocalidad)" style="text;html=1;strokeColor=none;fillColor=none;align=center;verticalAlign=middle;whiteSpace=wrap;rounded=0;" vertex="1" parent="1">
          <mxGeometry x="45" y="630" width="540" height="30" as="geometry" />
        </mxCell>
        <mxCell id="z0pL7Ufs_5OJyJkCOpSr-16" value="" style="endArrow=classic;html=1;rounded=0;exitX=0.624;exitY=-0.067;exitDx=0;exitDy=0;exitPerimeter=0;entryX=0.269;entryY=0.333;entryDx=0;entryDy=0;entryPerimeter=0;" edge="1" parent="1" source="z0pL7Ufs_5OJyJkCOpSr-13" target="z0pL7Ufs_5OJyJkCOpSr-15">
          <mxGeometry width="50" height="50" relative="1" as="geometry">
            <mxPoint x="390" y="470" as="sourcePoint" />
            <mxPoint x="440" y="420" as="targetPoint" />
            <Array as="points">
              <mxPoint x="382" y="530" />
              <mxPoint x="520" y="530" />
              <mxPoint x="520" y="610" />
              <mxPoint x="160" y="610" />
              <mxPoint x="160" y="640" />
            </Array>
          </mxGeometry>
        </mxCell>
        <mxCell id="z0pL7Ufs_5OJyJkCOpSr-17" value="PASA(&lt;font style=&quot;text-decoration-line: underline;&quot; color=&quot;#ff1919&quot;&gt;idLocalidad,&lt;/font&gt;&amp;nbsp;&lt;font color=&quot;#ff1919&quot;&gt;&lt;u&gt;&lt;i&gt;idAccidenteGeografico&lt;/i&gt;&lt;/u&gt;&lt;/font&gt;)" style="text;html=1;strokeColor=none;fillColor=none;align=center;verticalAlign=middle;whiteSpace=wrap;rounded=0;" vertex="1" parent="1">
          <mxGeometry x="45" y="710" width="540" height="30" as="geometry" />
        </mxCell>
        <mxCell id="z0pL7Ufs_5OJyJkCOpSr-18" value="" style="endArrow=classic;html=1;rounded=0;exitX=0.426;exitY=-0.033;exitDx=0;exitDy=0;exitPerimeter=0;" edge="1" parent="1" source="z0pL7Ufs_5OJyJkCOpSr-17">
          <mxGeometry width="50" height="50" relative="1" as="geometry">
            <mxPoint x="390" y="670" as="sourcePoint" />
            <mxPoint x="190" y="650" as="targetPoint" />
            <Array as="points">
              <mxPoint x="275" y="690" />
              <mxPoint x="160" y="690" />
              <mxPoint x="160" y="650" />
            </Array>
          </mxGeometry>
        </mxCell>
        <mxCell id="z0pL7Ufs_5OJyJkCOpSr-19" value="" style="endArrow=classic;html=1;rounded=0;exitX=0.63;exitY=-0.067;exitDx=0;exitDy=0;exitPerimeter=0;entryX=0.063;entryY=1.167;entryDx=0;entryDy=0;entryPerimeter=0;" edge="1" parent="1" source="z0pL7Ufs_5OJyJkCOpSr-17" target="z0pL7Ufs_5OJyJkCOpSr-2">
          <mxGeometry width="50" height="50" relative="1" as="geometry">
            <mxPoint x="500" y="740" as="sourcePoint" />
            <mxPoint x="550" y="690" as="targetPoint" />
            <Array as="points">
              <mxPoint x="385" y="690" />
              <mxPoint x="520" y="690" />
              <mxPoint x="520" y="760" />
              <mxPoint x="80" y="760" />
            </Array>
          </mxGeometry>
        </mxCell>
        <mxCell id="z0pL7Ufs_5OJyJkCOpSr-20" value="Accidente geográfico" style="swimlane;childLayout=stackLayout;horizontal=1;startSize=50;horizontalStack=0;rounded=1;fontSize=14;fontStyle=0;strokeWidth=2;resizeParent=0;resizeLast=1;shadow=0;dashed=0;align=center;arcSize=4;whiteSpace=wrap;html=1;fillColor=#d5e8d4;strokeColor=#82b366;" vertex="1" parent="1">
          <mxGeometry x="935" y="370" width="160" height="170" as="geometry" />
        </mxCell>
        <mxCell id="z0pL7Ufs_5OJyJkCOpSr-21" value="&lt;u&gt;IDAccidenteGeográfico&lt;br&gt;&lt;/u&gt;&lt;br&gt;Nombre&lt;br&gt;&lt;br&gt;Posición Vertical&lt;br&gt;&lt;br&gt;Posición Horizontal&lt;br&gt;&lt;br&gt;&lt;br&gt;" style="align=left;strokeColor=none;fillColor=none;spacingLeft=4;fontSize=12;verticalAlign=top;resizable=0;rotatable=0;part=1;html=1;" vertex="1" parent="z0pL7Ufs_5OJyJkCOpSr-20">
          <mxGeometry y="50" width="160" height="120" as="geometry" />
        </mxCell>
        <mxCell id="z0pL7Ufs_5OJyJkCOpSr-22" value="" style="triangle;whiteSpace=wrap;html=1;rotation=90;fillColor=#dae8fc;strokeColor=#6c8ebf;" vertex="1" parent="1">
          <mxGeometry x="985" y="600" width="60" height="80" as="geometry" />
        </mxCell>
        <mxCell id="z0pL7Ufs_5OJyJkCOpSr-23" value="" style="endArrow=none;html=1;rounded=0;entryX=0.5;entryY=1;entryDx=0;entryDy=0;exitX=0;exitY=0.5;exitDx=0;exitDy=0;" edge="1" parent="1" source="z0pL7Ufs_5OJyJkCOpSr-22" target="z0pL7Ufs_5OJyJkCOpSr-21">
          <mxGeometry width="50" height="50" relative="1" as="geometry">
            <mxPoint x="870" y="660" as="sourcePoint" />
            <mxPoint x="920" y="610" as="targetPoint" />
          </mxGeometry>
        </mxCell>
        <mxCell id="z0pL7Ufs_5OJyJkCOpSr-24" value="" style="endArrow=none;html=1;rounded=0;entryX=0.5;entryY=1;entryDx=0;entryDy=0;exitX=0.5;exitY=0;exitDx=0;exitDy=0;" edge="1" parent="1" source="z0pL7Ufs_5OJyJkCOpSr-25" target="z0pL7Ufs_5OJyJkCOpSr-22">
          <mxGeometry width="50" height="50" relative="1" as="geometry">
            <mxPoint x="890" y="710" as="sourcePoint" />
            <mxPoint x="920" y="610" as="targetPoint" />
          </mxGeometry>
        </mxCell>
        <mxCell id="z0pL7Ufs_5OJyJkCOpSr-25" value="Río" style="swimlane;childLayout=stackLayout;horizontal=1;startSize=50;horizontalStack=0;rounded=1;fontSize=14;fontStyle=0;strokeWidth=2;resizeParent=0;resizeLast=1;shadow=0;dashed=0;align=center;arcSize=4;whiteSpace=wrap;html=1;fillColor=#d5e8d4;strokeColor=#82b366;" vertex="1" parent="1">
          <mxGeometry x="660" y="710" width="160" height="80" as="geometry" />
        </mxCell>
        <mxCell id="z0pL7Ufs_5OJyJkCOpSr-26" value="Longitud" style="align=left;strokeColor=none;fillColor=none;spacingLeft=4;fontSize=12;verticalAlign=top;resizable=0;rotatable=0;part=1;html=1;" vertex="1" parent="z0pL7Ufs_5OJyJkCOpSr-25">
          <mxGeometry y="50" width="160" height="30" as="geometry" />
        </mxCell>
        <mxCell id="z0pL7Ufs_5OJyJkCOpSr-27" value="Montaña" style="swimlane;childLayout=stackLayout;horizontal=1;startSize=50;horizontalStack=0;rounded=1;fontSize=14;fontStyle=0;strokeWidth=2;resizeParent=0;resizeLast=1;shadow=0;dashed=0;align=center;arcSize=4;whiteSpace=wrap;html=1;fillColor=#d5e8d4;strokeColor=#82b366;" vertex="1" parent="1">
          <mxGeometry x="935" y="710" width="160" height="80" as="geometry" />
        </mxCell>
        <mxCell id="z0pL7Ufs_5OJyJkCOpSr-28" value="Altitud" style="align=left;strokeColor=none;fillColor=none;spacingLeft=4;fontSize=12;verticalAlign=top;resizable=0;rotatable=0;part=1;html=1;" vertex="1" parent="z0pL7Ufs_5OJyJkCOpSr-27">
          <mxGeometry y="50" width="160" height="30" as="geometry" />
        </mxCell>
        <mxCell id="z0pL7Ufs_5OJyJkCOpSr-29" value="Lago" style="swimlane;childLayout=stackLayout;horizontal=1;startSize=50;horizontalStack=0;rounded=1;fontSize=14;fontStyle=0;strokeWidth=2;resizeParent=0;resizeLast=1;shadow=0;dashed=0;align=center;arcSize=4;whiteSpace=wrap;html=1;fillColor=#d5e8d4;strokeColor=#82b366;" vertex="1" parent="1">
          <mxGeometry x="1220" y="710" width="160" height="80" as="geometry" />
        </mxCell>
        <mxCell id="z0pL7Ufs_5OJyJkCOpSr-30" value="Extensión" style="align=left;strokeColor=none;fillColor=none;spacingLeft=4;fontSize=12;verticalAlign=top;resizable=0;rotatable=0;part=1;html=1;" vertex="1" parent="z0pL7Ufs_5OJyJkCOpSr-29">
          <mxGeometry y="50" width="160" height="30" as="geometry" />
        </mxCell>
        <mxCell id="z0pL7Ufs_5OJyJkCOpSr-31" value="" style="endArrow=none;html=1;rounded=0;entryX=0.5;entryY=0;entryDx=0;entryDy=0;exitX=0.5;exitY=0;exitDx=0;exitDy=0;" edge="1" parent="1" source="z0pL7Ufs_5OJyJkCOpSr-29" target="z0pL7Ufs_5OJyJkCOpSr-22">
          <mxGeometry width="50" height="50" relative="1" as="geometry">
            <mxPoint x="870" y="660" as="sourcePoint" />
            <mxPoint x="920" y="610" as="targetPoint" />
          </mxGeometry>
        </mxCell>
        <mxCell id="z0pL7Ufs_5OJyJkCOpSr-32" value="" style="endArrow=none;html=1;rounded=0;entryX=1;entryY=0.5;entryDx=0;entryDy=0;exitX=0.5;exitY=0;exitDx=0;exitDy=0;" edge="1" parent="1" source="z0pL7Ufs_5OJyJkCOpSr-27" target="z0pL7Ufs_5OJyJkCOpSr-22">
          <mxGeometry width="50" height="50" relative="1" as="geometry">
            <mxPoint x="870" y="660" as="sourcePoint" />
            <mxPoint x="920" y="610" as="targetPoint" />
          </mxGeometry>
        </mxCell>
        <mxCell id="z0pL7Ufs_5OJyJkCOpSr-33" value="País" style="swimlane;childLayout=stackLayout;horizontal=1;startSize=50;horizontalStack=0;rounded=1;fontSize=14;fontStyle=0;strokeWidth=2;resizeParent=0;resizeLast=1;shadow=0;dashed=0;align=center;arcSize=4;whiteSpace=wrap;html=1;fillColor=#d5e8d4;strokeColor=#82b366;" vertex="1" parent="1">
          <mxGeometry x="935" y="30" width="160" height="140" as="geometry" />
        </mxCell>
        <mxCell id="z0pL7Ufs_5OJyJkCOpSr-34" value="&lt;u&gt;Nombre&lt;/u&gt;&lt;br&gt;&lt;br&gt;Extensión&lt;br&gt;&lt;br&gt;Población" style="align=left;strokeColor=none;fillColor=none;spacingLeft=4;fontSize=12;verticalAlign=top;resizable=0;rotatable=0;part=1;html=1;" vertex="1" parent="z0pL7Ufs_5OJyJkCOpSr-33">
          <mxGeometry y="50" width="160" height="90" as="geometry" />
        </mxCell>
        <mxCell id="z0pL7Ufs_5OJyJkCOpSr-35" value="Localidad" style="swimlane;childLayout=stackLayout;horizontal=1;startSize=50;horizontalStack=0;rounded=1;fontSize=14;fontStyle=0;strokeWidth=2;resizeParent=0;resizeLast=1;shadow=0;dashed=0;align=center;arcSize=4;whiteSpace=wrap;html=1;fillColor=#d5e8d4;strokeColor=#82b366;" vertex="1" parent="1">
          <mxGeometry x="1660" y="400" width="160" height="110" as="geometry" />
        </mxCell>
        <mxCell id="z0pL7Ufs_5OJyJkCOpSr-36" value="&lt;u&gt;IDLocalidad&lt;/u&gt;&lt;br&gt;&lt;br&gt;Nombre" style="align=left;strokeColor=none;fillColor=none;spacingLeft=4;fontSize=12;verticalAlign=top;resizable=0;rotatable=0;part=1;html=1;" vertex="1" parent="z0pL7Ufs_5OJyJkCOpSr-35">
          <mxGeometry y="50" width="160" height="60" as="geometry" />
        </mxCell>
        <mxCell id="z0pL7Ufs_5OJyJkCOpSr-37" value="" style="endArrow=none;html=1;rounded=0;entryX=0.5;entryY=1;entryDx=0;entryDy=0;exitX=0;exitY=0.5;exitDx=0;exitDy=0;" edge="1" parent="1">
          <mxGeometry width="50" height="50" relative="1" as="geometry">
            <mxPoint x="1014" y="370" as="sourcePoint" />
            <mxPoint x="1014" y="300" as="targetPoint" />
          </mxGeometry>
        </mxCell>
        <mxCell id="z0pL7Ufs_5OJyJkCOpSr-38" value="Tiene" style="shape=rhombus;perimeter=rhombusPerimeter;whiteSpace=wrap;html=1;align=center;fillColor=#f8cecc;strokeColor=#b85450;" vertex="1" parent="1">
          <mxGeometry x="955" y="240" width="120" height="60" as="geometry" />
        </mxCell>
        <mxCell id="z0pL7Ufs_5OJyJkCOpSr-39" value="" style="endArrow=none;html=1;rounded=0;entryX=0.5;entryY=1;entryDx=0;entryDy=0;exitX=0;exitY=0.5;exitDx=0;exitDy=0;" edge="1" parent="1">
          <mxGeometry width="50" height="50" relative="1" as="geometry">
            <mxPoint x="1015" y="240" as="sourcePoint" />
            <mxPoint x="1015" y="170" as="targetPoint" />
          </mxGeometry>
        </mxCell>
        <mxCell id="z0pL7Ufs_5OJyJkCOpSr-40" value="Contiene" style="shape=rhombus;perimeter=rhombusPerimeter;whiteSpace=wrap;html=1;align=center;fillColor=#f8cecc;strokeColor=#b85450;" vertex="1" parent="1">
          <mxGeometry x="1440" y="96" width="120" height="60" as="geometry" />
        </mxCell>
        <mxCell id="z0pL7Ufs_5OJyJkCOpSr-41" value="Pasa" style="shape=rhombus;perimeter=rhombusPerimeter;whiteSpace=wrap;html=1;align=center;fillColor=#f8cecc;strokeColor=#b85450;" vertex="1" parent="1">
          <mxGeometry x="1440" y="870" width="120" height="60" as="geometry" />
        </mxCell>
        <mxCell id="z0pL7Ufs_5OJyJkCOpSr-42" value="" style="endArrow=none;html=1;rounded=0;exitX=0.5;exitY=1;exitDx=0;exitDy=0;entryX=0;entryY=0.5;entryDx=0;entryDy=0;" edge="1" parent="1" source="z0pL7Ufs_5OJyJkCOpSr-26" target="z0pL7Ufs_5OJyJkCOpSr-41">
          <mxGeometry width="50" height="50" relative="1" as="geometry">
            <mxPoint x="1210" y="500" as="sourcePoint" />
            <mxPoint x="1260" y="450" as="targetPoint" />
            <Array as="points">
              <mxPoint x="740" y="900" />
            </Array>
          </mxGeometry>
        </mxCell>
        <mxCell id="z0pL7Ufs_5OJyJkCOpSr-43" value="" style="endArrow=none;html=1;rounded=0;entryX=0.5;entryY=0;entryDx=0;entryDy=0;exitX=0.5;exitY=1;exitDx=0;exitDy=0;" edge="1" parent="1" source="z0pL7Ufs_5OJyJkCOpSr-36" target="z0pL7Ufs_5OJyJkCOpSr-41">
          <mxGeometry width="50" height="50" relative="1" as="geometry">
            <mxPoint x="1210" y="500" as="sourcePoint" />
            <mxPoint x="1260" y="450" as="targetPoint" />
            <Array as="points">
              <mxPoint x="1740" y="710" />
              <mxPoint x="1500" y="710" />
            </Array>
          </mxGeometry>
        </mxCell>
        <mxCell id="z0pL7Ufs_5OJyJkCOpSr-44" value="" style="endArrow=none;html=1;rounded=0;entryX=1;entryY=0.5;entryDx=0;entryDy=0;exitX=0;exitY=0.5;exitDx=0;exitDy=0;" edge="1" parent="1" source="z0pL7Ufs_5OJyJkCOpSr-40" target="z0pL7Ufs_5OJyJkCOpSr-34">
          <mxGeometry width="50" height="50" relative="1" as="geometry">
            <mxPoint x="1210" y="500" as="sourcePoint" />
            <mxPoint x="1260" y="450" as="targetPoint" />
          </mxGeometry>
        </mxCell>
        <mxCell id="z0pL7Ufs_5OJyJkCOpSr-45" value="" style="endArrow=none;html=1;rounded=0;entryX=1;entryY=0.5;entryDx=0;entryDy=0;exitX=0.5;exitY=0;exitDx=0;exitDy=0;" edge="1" parent="1" source="z0pL7Ufs_5OJyJkCOpSr-35" target="z0pL7Ufs_5OJyJkCOpSr-40">
          <mxGeometry width="50" height="50" relative="1" as="geometry">
            <mxPoint x="1210" y="500" as="sourcePoint" />
            <mxPoint x="1260" y="450" as="targetPoint" />
            <Array as="points">
              <mxPoint x="1740" y="126" />
            </Array>
          </mxGeometry>
        </mxCell>
        <mxCell id="z0pL7Ufs_5OJyJkCOpSr-46" value="N:M" style="text;html=1;strokeColor=none;fillColor=none;align=center;verticalAlign=middle;whiteSpace=wrap;rounded=0;" vertex="1" parent="1">
          <mxGeometry x="1075" y="255" width="60" height="30" as="geometry" />
        </mxCell>
        <mxCell id="z0pL7Ufs_5OJyJkCOpSr-47" value="(0,N)" style="text;html=1;strokeColor=none;fillColor=none;align=center;verticalAlign=middle;whiteSpace=wrap;rounded=0;" vertex="1" parent="1">
          <mxGeometry x="1030" y="180" width="60" height="30" as="geometry" />
        </mxCell>
        <mxCell id="z0pL7Ufs_5OJyJkCOpSr-48" value="(0,M)" style="text;html=1;strokeColor=none;fillColor=none;align=center;verticalAlign=middle;whiteSpace=wrap;rounded=0;" vertex="1" parent="1">
          <mxGeometry x="1030" y="330" width="60" height="30" as="geometry" />
        </mxCell>
        <mxCell id="z0pL7Ufs_5OJyJkCOpSr-49" value="N:M" style="text;html=1;strokeColor=none;fillColor=none;align=center;verticalAlign=middle;whiteSpace=wrap;rounded=0;" vertex="1" parent="1">
          <mxGeometry x="1570" y="885" width="60" height="30" as="geometry" />
        </mxCell>
        <mxCell id="z0pL7Ufs_5OJyJkCOpSr-50" value="(0,M)" style="text;html=1;strokeColor=none;fillColor=none;align=center;verticalAlign=middle;whiteSpace=wrap;rounded=0;" vertex="1" parent="1">
          <mxGeometry x="1750" y="520" width="60" height="30" as="geometry" />
        </mxCell>
        <mxCell id="z0pL7Ufs_5OJyJkCOpSr-51" value="(0,N)" style="text;html=1;strokeColor=none;fillColor=none;align=center;verticalAlign=middle;whiteSpace=wrap;rounded=0;" vertex="1" parent="1">
          <mxGeometry x="750" y="800" width="60" height="30" as="geometry" />
        </mxCell>
        <mxCell id="z0pL7Ufs_5OJyJkCOpSr-52" value="N:M" style="text;html=1;strokeColor=none;fillColor=none;align=center;verticalAlign=middle;whiteSpace=wrap;rounded=0;" vertex="1" parent="1">
          <mxGeometry x="1470" y="60" width="60" height="30" as="geometry" />
        </mxCell>
        <mxCell id="z0pL7Ufs_5OJyJkCOpSr-53" value="(1,N)" style="text;html=1;strokeColor=none;fillColor=none;align=center;verticalAlign=middle;whiteSpace=wrap;rounded=0;" vertex="1" parent="1">
          <mxGeometry x="1100" y="90" width="60" height="30" as="geometry" />
        </mxCell>
        <mxCell id="z0pL7Ufs_5OJyJkCOpSr-54" value="(1,N)" style="text;html=1;strokeColor=none;fillColor=none;align=center;verticalAlign=middle;whiteSpace=wrap;rounded=0;" vertex="1" parent="1">
          <mxGeometry x="1740" y="360" width="60" height="30" as="geometry" />
        </mxCell>
        <mxCell id="z0pL7Ufs_5OJyJkCOpSr-55" value="Tipo" style="ellipse;whiteSpace=wrap;html=1;align=center;fillColor=#fff2cc;strokeColor=#d6b656;" vertex="1" parent="1">
          <mxGeometry x="1080" y="560" width="100" height="40" as="geometry" />
        </mxCell>
        <mxCell id="z0pL7Ufs_5OJyJkCOpSr-56" value="" style="endArrow=none;html=1;rounded=0;entryX=0.021;entryY=0.036;entryDx=0;entryDy=0;entryPerimeter=0;exitX=0;exitY=1;exitDx=0;exitDy=0;" edge="1" parent="1" source="z0pL7Ufs_5OJyJkCOpSr-55" target="z0pL7Ufs_5OJyJkCOpSr-22">
          <mxGeometry width="50" height="50" relative="1" as="geometry">
            <mxPoint x="940" y="600" as="sourcePoint" />
            <mxPoint x="990" y="550" as="targetPoint" />
          </mxGeometry>
        </mxCell>
      </root>
    </mxGraphModel>
  </diagram>
</mxfile>
